<mxfile host="app.diagrams.net" agent="Mozilla/5.0 (Windows NT 10.0; Win64; x64) AppleWebKit/537.36 (KHTML, like Gecko) Chrome/133.0.0.0 Safari/537.36 Edg/133.0.0.0" version="26.0.14">
  <diagram id="R2lEEEUBdFMjLlhIrx00" name="Page-1">
    <mxGraphModel dx="1900" dy="569" grid="1" gridSize="10" guides="1" tooltips="1" connect="1" arrows="1" fold="1" page="1" pageScale="1" pageWidth="850" pageHeight="1100" math="0" shadow="0" extFonts="Permanent Marker^https://fonts.googleapis.com/css?family=Permanent+Marker">
      <root>
        <mxCell id="0" />
        <mxCell id="1" parent="0" />
        <mxCell id="XWghQxtPNpE64DwW4WAM-39" value="&lt;span style=&quot;font-size: 10px;&quot;&gt;id_especialidad&lt;/span&gt;" style="ellipse;whiteSpace=wrap;html=1;fillColor=#f8cecc;strokeColor=#b85450;" parent="1" vertex="1">
          <mxGeometry x="-620" y="40" width="75" height="40" as="geometry" />
        </mxCell>
        <mxCell id="XWghQxtPNpE64DwW4WAM-44" value="" style="endArrow=none;html=1;rounded=0;entryX=0.5;entryY=1;entryDx=0;entryDy=0;exitX=0.25;exitY=0;exitDx=0;exitDy=0;" parent="1" source="XWghQxtPNpE64DwW4WAM-38" target="XWghQxtPNpE64DwW4WAM-39" edge="1">
          <mxGeometry width="50" height="50" relative="1" as="geometry">
            <mxPoint x="-670" y="200" as="sourcePoint" />
            <mxPoint x="-620" y="150" as="targetPoint" />
          </mxGeometry>
        </mxCell>
        <mxCell id="XWghQxtPNpE64DwW4WAM-2" value="&lt;font style=&quot;font-size: 10px;&quot;&gt;pacientes&lt;/font&gt;" style="rounded=0;whiteSpace=wrap;html=1;fillColor=#dae8fc;strokeColor=#6c8ebf;" parent="1" vertex="1">
          <mxGeometry x="-160" y="200" width="120" height="30" as="geometry" />
        </mxCell>
        <mxCell id="XWghQxtPNpE64DwW4WAM-4" value="medicos" style="rounded=0;whiteSpace=wrap;html=1;fillColor=#dae8fc;strokeColor=#6c8ebf;" parent="1" vertex="1">
          <mxGeometry x="-610.75" y="340" width="120" height="40" as="geometry" />
        </mxCell>
        <mxCell id="XWghQxtPNpE64DwW4WAM-5" value="&lt;font style=&quot;font-size: 10px;&quot;&gt;citas&lt;/font&gt;" style="rounded=0;whiteSpace=wrap;html=1;fillColor=#dae8fc;strokeColor=#6c8ebf;" parent="1" vertex="1">
          <mxGeometry x="-160" y="370" width="120" height="30" as="geometry" />
        </mxCell>
        <mxCell id="XWghQxtPNpE64DwW4WAM-6" value="&lt;span style=&quot;font-size: 10px;&quot;&gt;receta&lt;/span&gt;&lt;div&gt;&lt;span style=&quot;font-size: 10px;&quot;&gt;tratamientos-medicamento&lt;/span&gt;&lt;/div&gt;" style="rounded=0;whiteSpace=wrap;html=1;fillColor=#dae8fc;strokeColor=#6c8ebf;" parent="1" vertex="1">
          <mxGeometry x="246" y="359" width="128" height="40" as="geometry" />
        </mxCell>
        <mxCell id="XWghQxtPNpE64DwW4WAM-8" value="&lt;font style=&quot;font-size: 10px;&quot;&gt;num_historial_clinico&lt;/font&gt;" style="ellipse;whiteSpace=wrap;html=1;fillColor=#f8cecc;strokeColor=#b85450;" parent="1" vertex="1">
          <mxGeometry x="-360" y="187.5" width="100" height="55" as="geometry" />
        </mxCell>
        <mxCell id="XWghQxtPNpE64DwW4WAM-9" value="&lt;font style=&quot;font-size: 10px;&quot;&gt;telefono&lt;/font&gt;" style="ellipse;whiteSpace=wrap;html=1;" parent="1" vertex="1">
          <mxGeometry x="-5" y="110" width="70" height="40" as="geometry" />
        </mxCell>
        <mxCell id="XWghQxtPNpE64DwW4WAM-10" value="&lt;font style=&quot;font-size: 10px;&quot;&gt;direccion&lt;/font&gt;" style="ellipse;whiteSpace=wrap;html=1;" parent="1" vertex="1">
          <mxGeometry x="-135" y="100" width="70" height="40" as="geometry" />
        </mxCell>
        <mxCell id="XWghQxtPNpE64DwW4WAM-11" value="&lt;font style=&quot;font-size: 10px;&quot;&gt;nombre_completo&lt;/font&gt;" style="ellipse;whiteSpace=wrap;html=1;" parent="1" vertex="1">
          <mxGeometry x="-340" y="110" width="90" height="40" as="geometry" />
        </mxCell>
        <mxCell id="XWghQxtPNpE64DwW4WAM-12" value="" style="endArrow=none;html=1;rounded=0;movable=1;resizable=1;rotatable=1;deletable=1;editable=1;locked=0;connectable=1;" parent="1" edge="1">
          <mxGeometry width="50" height="50" relative="1" as="geometry">
            <mxPoint x="-345" y="230.5" as="sourcePoint" />
            <mxPoint x="-275" y="230" as="targetPoint" />
          </mxGeometry>
        </mxCell>
        <mxCell id="XWghQxtPNpE64DwW4WAM-13" value="&lt;font style=&quot;font-size: 10px;&quot;&gt;apellido&lt;/font&gt;" style="ellipse;whiteSpace=wrap;html=1;" parent="1" vertex="1">
          <mxGeometry x="-290" y="40" width="70" height="40" as="geometry" />
        </mxCell>
        <mxCell id="XWghQxtPNpE64DwW4WAM-14" value="&lt;font style=&quot;font-size: 10px;&quot;&gt;nombre&lt;/font&gt;" style="ellipse;whiteSpace=wrap;html=1;" parent="1" vertex="1">
          <mxGeometry x="-400" y="40" width="70" height="40" as="geometry" />
        </mxCell>
        <mxCell id="XWghQxtPNpE64DwW4WAM-15" value="&lt;font style=&quot;font-size: 10px;&quot;&gt;ciudad&lt;/font&gt;" style="ellipse;whiteSpace=wrap;html=1;" parent="1" vertex="1">
          <mxGeometry x="-135" y="10" width="70" height="40" as="geometry" />
        </mxCell>
        <mxCell id="XWghQxtPNpE64DwW4WAM-16" value="&lt;font style=&quot;font-size: 10px;&quot;&gt;departamento&lt;/font&gt;" style="ellipse;whiteSpace=wrap;html=1;" parent="1" vertex="1">
          <mxGeometry x="-200" y="40" width="70" height="40" as="geometry" />
        </mxCell>
        <mxCell id="XWghQxtPNpE64DwW4WAM-17" value="&lt;font style=&quot;font-size: 10px;&quot;&gt;colonia&lt;/font&gt;" style="ellipse;whiteSpace=wrap;html=1;" parent="1" vertex="1">
          <mxGeometry x="-75" y="40" width="70" height="40" as="geometry" />
        </mxCell>
        <mxCell id="XWghQxtPNpE64DwW4WAM-19" value="" style="endArrow=none;html=1;rounded=0;entryX=0;entryY=0.5;entryDx=0;entryDy=0;exitX=1;exitY=0.5;exitDx=0;exitDy=0;" parent="1" source="XWghQxtPNpE64DwW4WAM-8" target="XWghQxtPNpE64DwW4WAM-2" edge="1">
          <mxGeometry width="50" height="50" relative="1" as="geometry">
            <mxPoint x="-260" y="310" as="sourcePoint" />
            <mxPoint x="-210" y="260" as="targetPoint" />
          </mxGeometry>
        </mxCell>
        <mxCell id="XWghQxtPNpE64DwW4WAM-20" value="" style="endArrow=none;html=1;rounded=0;entryX=0.5;entryY=1;entryDx=0;entryDy=0;exitX=0.5;exitY=0;exitDx=0;exitDy=0;" parent="1" source="XWghQxtPNpE64DwW4WAM-2" target="XWghQxtPNpE64DwW4WAM-10" edge="1">
          <mxGeometry width="50" height="50" relative="1" as="geometry">
            <mxPoint x="-155" y="200" as="sourcePoint" />
            <mxPoint x="-105" y="150" as="targetPoint" />
          </mxGeometry>
        </mxCell>
        <mxCell id="XWghQxtPNpE64DwW4WAM-21" value="" style="endArrow=none;html=1;rounded=0;exitX=0.08;exitY=0.005;exitDx=0;exitDy=0;exitPerimeter=0;entryX=1;entryY=1;entryDx=0;entryDy=0;" parent="1" source="XWghQxtPNpE64DwW4WAM-2" target="XWghQxtPNpE64DwW4WAM-11" edge="1">
          <mxGeometry width="50" height="50" relative="1" as="geometry">
            <mxPoint x="-240" y="190" as="sourcePoint" />
            <mxPoint x="-210" y="180" as="targetPoint" />
          </mxGeometry>
        </mxCell>
        <mxCell id="XWghQxtPNpE64DwW4WAM-22" value="" style="endArrow=none;html=1;rounded=0;entryX=1;entryY=1;entryDx=0;entryDy=0;exitX=0.5;exitY=0;exitDx=0;exitDy=0;" parent="1" source="XWghQxtPNpE64DwW4WAM-11" target="XWghQxtPNpE64DwW4WAM-14" edge="1">
          <mxGeometry width="50" height="50" relative="1" as="geometry">
            <mxPoint x="-420" y="190" as="sourcePoint" />
            <mxPoint x="-370" y="140" as="targetPoint" />
          </mxGeometry>
        </mxCell>
        <mxCell id="XWghQxtPNpE64DwW4WAM-23" value="" style="endArrow=none;html=1;rounded=0;entryX=0.5;entryY=1;entryDx=0;entryDy=0;exitX=0.5;exitY=0;exitDx=0;exitDy=0;" parent="1" source="XWghQxtPNpE64DwW4WAM-11" target="XWghQxtPNpE64DwW4WAM-13" edge="1">
          <mxGeometry width="50" height="50" relative="1" as="geometry">
            <mxPoint x="-330" y="130" as="sourcePoint" />
            <mxPoint x="-280" y="80" as="targetPoint" />
          </mxGeometry>
        </mxCell>
        <mxCell id="XWghQxtPNpE64DwW4WAM-24" value="" style="endArrow=none;html=1;rounded=0;entryX=1;entryY=1;entryDx=0;entryDy=0;exitX=0.5;exitY=0;exitDx=0;exitDy=0;" parent="1" source="XWghQxtPNpE64DwW4WAM-10" target="XWghQxtPNpE64DwW4WAM-16" edge="1">
          <mxGeometry width="50" height="50" relative="1" as="geometry">
            <mxPoint x="-190" y="80" as="sourcePoint" />
            <mxPoint x="-119.28932188134524" y="80" as="targetPoint" />
          </mxGeometry>
        </mxCell>
        <mxCell id="XWghQxtPNpE64DwW4WAM-25" value="" style="endArrow=none;html=1;rounded=0;entryX=0.5;entryY=1;entryDx=0;entryDy=0;exitX=0.5;exitY=0;exitDx=0;exitDy=0;" parent="1" source="XWghQxtPNpE64DwW4WAM-10" target="XWghQxtPNpE64DwW4WAM-15" edge="1">
          <mxGeometry width="50" height="50" relative="1" as="geometry">
            <mxPoint x="-40" y="140" as="sourcePoint" />
            <mxPoint x="10" y="90" as="targetPoint" />
          </mxGeometry>
        </mxCell>
        <mxCell id="XWghQxtPNpE64DwW4WAM-26" value="" style="endArrow=none;html=1;rounded=0;exitX=0;exitY=1;exitDx=0;exitDy=0;entryX=0.5;entryY=0;entryDx=0;entryDy=0;" parent="1" source="XWghQxtPNpE64DwW4WAM-17" target="XWghQxtPNpE64DwW4WAM-10" edge="1">
          <mxGeometry width="50" height="50" relative="1" as="geometry">
            <mxPoint x="-20" y="89.63999999999999" as="sourcePoint" />
            <mxPoint x="-110" y="80" as="targetPoint" />
          </mxGeometry>
        </mxCell>
        <mxCell id="XWghQxtPNpE64DwW4WAM-28" value="" style="endArrow=none;html=1;rounded=0;entryX=0;entryY=1;entryDx=0;entryDy=0;exitX=0.75;exitY=0;exitDx=0;exitDy=0;" parent="1" source="XWghQxtPNpE64DwW4WAM-2" target="XWghQxtPNpE64DwW4WAM-9" edge="1">
          <mxGeometry width="50" height="50" relative="1" as="geometry">
            <mxPoint x="-110" y="320" as="sourcePoint" />
            <mxPoint x="-60" y="270" as="targetPoint" />
          </mxGeometry>
        </mxCell>
        <mxCell id="XWghQxtPNpE64DwW4WAM-30" value="&lt;font style=&quot;font-size: 10px;&quot;&gt;turno&lt;/font&gt;" style="ellipse;whiteSpace=wrap;html=1;" parent="1" vertex="1">
          <mxGeometry x="-540.25" y="610" width="70" height="40" as="geometry" />
        </mxCell>
        <mxCell id="XWghQxtPNpE64DwW4WAM-31" value="&lt;font size=&quot;1&quot;&gt;nombre&lt;/font&gt;" style="ellipse;whiteSpace=wrap;html=1;" parent="1" vertex="1">
          <mxGeometry x="-740" y="290" width="70" height="40" as="geometry" />
        </mxCell>
        <mxCell id="XWghQxtPNpE64DwW4WAM-32" value="&lt;span style=&quot;font-size: 10px;&quot;&gt;id_turno&lt;/span&gt;" style="ellipse;whiteSpace=wrap;html=1;fillColor=#f8cecc;strokeColor=#b85450;" parent="1" vertex="1">
          <mxGeometry x="-637.75" y="610" width="70" height="40" as="geometry" />
        </mxCell>
        <mxCell id="XWghQxtPNpE64DwW4WAM-36" value="&lt;font size=&quot;1&quot;&gt;turnos&lt;/font&gt;" style="rounded=0;whiteSpace=wrap;html=1;fillColor=#dae8fc;strokeColor=#6c8ebf;" parent="1" vertex="1">
          <mxGeometry x="-610.75" y="530" width="120" height="40" as="geometry" />
        </mxCell>
        <mxCell id="XWghQxtPNpE64DwW4WAM-38" value="&lt;font size=&quot;1&quot;&gt;especialidades&lt;/font&gt;" style="rounded=0;whiteSpace=wrap;html=1;fillColor=#dae8fc;strokeColor=#6c8ebf;" parent="1" vertex="1">
          <mxGeometry x="-610" y="110" width="120" height="40" as="geometry" />
        </mxCell>
        <mxCell id="XWghQxtPNpE64DwW4WAM-40" value="&lt;span style=&quot;font-size: 10px;&quot;&gt;especialidad&lt;/span&gt;" style="ellipse;whiteSpace=wrap;html=1;" parent="1" vertex="1">
          <mxGeometry x="-530" y="40" width="70" height="40" as="geometry" />
        </mxCell>
        <mxCell id="XWghQxtPNpE64DwW4WAM-42" value="" style="endArrow=none;html=1;rounded=0;entryX=0.5;entryY=1;entryDx=0;entryDy=0;exitX=0.5;exitY=0;exitDx=0;exitDy=0;" parent="1" source="XWghQxtPNpE64DwW4WAM-53" target="XWghQxtPNpE64DwW4WAM-38" edge="1">
          <mxGeometry width="50" height="50" relative="1" as="geometry">
            <mxPoint x="-650" y="280" as="sourcePoint" />
            <mxPoint x="-600" y="230" as="targetPoint" />
          </mxGeometry>
        </mxCell>
        <mxCell id="XWghQxtPNpE64DwW4WAM-43" value="" style="endArrow=none;html=1;rounded=0;entryX=0.5;entryY=1;entryDx=0;entryDy=0;exitX=0.75;exitY=0;exitDx=0;exitDy=0;" parent="1" source="XWghQxtPNpE64DwW4WAM-38" target="XWghQxtPNpE64DwW4WAM-40" edge="1">
          <mxGeometry width="50" height="50" relative="1" as="geometry">
            <mxPoint x="-475" y="200" as="sourcePoint" />
            <mxPoint x="-425" y="150" as="targetPoint" />
          </mxGeometry>
        </mxCell>
        <mxCell id="XWghQxtPNpE64DwW4WAM-45" value="" style="endArrow=none;html=1;rounded=0;exitX=1;exitY=0.5;exitDx=0;exitDy=0;entryX=0;entryY=0.75;entryDx=0;entryDy=0;" parent="1" source="XWghQxtPNpE64DwW4WAM-33" target="XWghQxtPNpE64DwW4WAM-4" edge="1">
          <mxGeometry width="50" height="50" relative="1" as="geometry">
            <mxPoint x="-670" y="430" as="sourcePoint" />
            <mxPoint x="-510" y="380" as="targetPoint" />
            <Array as="points" />
          </mxGeometry>
        </mxCell>
        <mxCell id="XWghQxtPNpE64DwW4WAM-46" value="" style="endArrow=none;html=1;rounded=0;exitX=1;exitY=0.5;exitDx=0;exitDy=0;entryX=0;entryY=0.25;entryDx=0;entryDy=0;" parent="1" source="XWghQxtPNpE64DwW4WAM-31" target="XWghQxtPNpE64DwW4WAM-4" edge="1">
          <mxGeometry width="50" height="50" relative="1" as="geometry">
            <mxPoint x="-660" y="310" as="sourcePoint" />
            <mxPoint x="-610" y="260" as="targetPoint" />
          </mxGeometry>
        </mxCell>
        <mxCell id="XWghQxtPNpE64DwW4WAM-47" value="" style="endArrow=none;html=1;rounded=0;entryX=0.5;entryY=1;entryDx=0;entryDy=0;exitX=0.5;exitY=0;exitDx=0;exitDy=0;" parent="1" source="XWghQxtPNpE64DwW4WAM-55" target="XWghQxtPNpE64DwW4WAM-4" edge="1">
          <mxGeometry width="50" height="50" relative="1" as="geometry">
            <mxPoint x="-550" y="450" as="sourcePoint" />
            <mxPoint x="-530" y="390" as="targetPoint" />
          </mxGeometry>
        </mxCell>
        <mxCell id="XWghQxtPNpE64DwW4WAM-48" value="" style="endArrow=none;html=1;rounded=0;" parent="1" edge="1">
          <mxGeometry width="50" height="50" relative="1" as="geometry">
            <mxPoint x="-627.75" y="640" as="sourcePoint" />
            <mxPoint x="-577.75" y="640" as="targetPoint" />
          </mxGeometry>
        </mxCell>
        <mxCell id="XWghQxtPNpE64DwW4WAM-49" value="" style="endArrow=none;html=1;rounded=0;" parent="1" source="XWghQxtPNpE64DwW4WAM-33" edge="1">
          <mxGeometry width="50" height="50" relative="1" as="geometry">
            <mxPoint x="-739" y="359" as="sourcePoint" />
            <mxPoint x="-689" y="359" as="targetPoint" />
          </mxGeometry>
        </mxCell>
        <mxCell id="XWghQxtPNpE64DwW4WAM-50" value="" style="endArrow=none;html=1;rounded=0;entryX=0.443;entryY=1.025;entryDx=0;entryDy=0;entryPerimeter=0;exitX=0.5;exitY=0;exitDx=0;exitDy=0;" parent="1" source="XWghQxtPNpE64DwW4WAM-32" target="XWghQxtPNpE64DwW4WAM-36" edge="1">
          <mxGeometry width="50" height="50" relative="1" as="geometry">
            <mxPoint x="-610.25" y="610" as="sourcePoint" />
            <mxPoint x="-577.75" y="580" as="targetPoint" />
          </mxGeometry>
        </mxCell>
        <mxCell id="XWghQxtPNpE64DwW4WAM-51" value="" style="endArrow=none;html=1;rounded=0;entryX=0.583;entryY=1;entryDx=0;entryDy=0;entryPerimeter=0;exitX=0.5;exitY=0;exitDx=0;exitDy=0;" parent="1" source="XWghQxtPNpE64DwW4WAM-30" target="XWghQxtPNpE64DwW4WAM-36" edge="1">
          <mxGeometry width="50" height="50" relative="1" as="geometry">
            <mxPoint x="-570.25" y="630" as="sourcePoint" />
            <mxPoint x="-520.25" y="580" as="targetPoint" />
          </mxGeometry>
        </mxCell>
        <mxCell id="XWghQxtPNpE64DwW4WAM-52" value="" style="endArrow=none;html=1;rounded=0;" parent="1" edge="1">
          <mxGeometry width="50" height="50" relative="1" as="geometry">
            <mxPoint x="-607.5" y="70" as="sourcePoint" />
            <mxPoint x="-557.5" y="70" as="targetPoint" />
          </mxGeometry>
        </mxCell>
        <mxCell id="XWghQxtPNpE64DwW4WAM-54" value="" style="endArrow=none;html=1;rounded=0;entryX=0.5;entryY=1;entryDx=0;entryDy=0;exitX=0.5;exitY=0;exitDx=0;exitDy=0;" parent="1" source="XWghQxtPNpE64DwW4WAM-4" target="XWghQxtPNpE64DwW4WAM-53" edge="1">
          <mxGeometry width="50" height="50" relative="1" as="geometry">
            <mxPoint x="-550" y="310" as="sourcePoint" />
            <mxPoint x="-550" y="210" as="targetPoint" />
          </mxGeometry>
        </mxCell>
        <mxCell id="XWghQxtPNpE64DwW4WAM-53" value="&lt;font style=&quot;font-size: 10px;&quot;&gt;especialidad&lt;/font&gt;&lt;div&gt;&lt;font style=&quot;font-size: 10px;&quot;&gt;medica&lt;/font&gt;&lt;/div&gt;" style="rhombus;whiteSpace=wrap;html=1;" parent="1" vertex="1">
          <mxGeometry x="-587.5" y="200" width="75" height="65" as="geometry" />
        </mxCell>
        <mxCell id="XWghQxtPNpE64DwW4WAM-56" value="" style="endArrow=none;html=1;rounded=0;entryX=0.5;entryY=1;entryDx=0;entryDy=0;exitX=0.5;exitY=0;exitDx=0;exitDy=0;" parent="1" source="XWghQxtPNpE64DwW4WAM-36" target="XWghQxtPNpE64DwW4WAM-55" edge="1">
          <mxGeometry width="50" height="50" relative="1" as="geometry">
            <mxPoint x="-549" y="440" as="sourcePoint" />
            <mxPoint x="-550" y="350" as="targetPoint" />
          </mxGeometry>
        </mxCell>
        <mxCell id="XWghQxtPNpE64DwW4WAM-55" value="&lt;font style=&quot;font-size: 10px;&quot;&gt;turnos&lt;/font&gt;&lt;div&gt;&lt;font style=&quot;font-size: 10px;&quot;&gt;&amp;nbsp;meidcos&lt;/font&gt;&lt;/div&gt;" style="rhombus;whiteSpace=wrap;html=1;" parent="1" vertex="1">
          <mxGeometry x="-585.75" y="424" width="70" height="60" as="geometry" />
        </mxCell>
        <mxCell id="XWghQxtPNpE64DwW4WAM-33" value="id" style="ellipse;whiteSpace=wrap;html=1;fillColor=#f8cecc;strokeColor=#b85450;" parent="1" vertex="1">
          <mxGeometry x="-740" y="350" width="70" height="40" as="geometry" />
        </mxCell>
        <mxCell id="XWghQxtPNpE64DwW4WAM-59" value="&lt;span style=&quot;font-size: 10px;&quot;&gt;citas para pacidnte&lt;/span&gt;" style="rhombus;whiteSpace=wrap;html=1;" parent="1" vertex="1">
          <mxGeometry x="-135" y="260" width="70" height="60" as="geometry" />
        </mxCell>
        <mxCell id="XWghQxtPNpE64DwW4WAM-60" value="&lt;span style=&quot;font-size: 10px;&quot;&gt;citas por medico&lt;/span&gt;" style="rhombus;whiteSpace=wrap;html=1;" parent="1" vertex="1">
          <mxGeometry x="-380" y="355" width="70" height="60" as="geometry" />
        </mxCell>
        <mxCell id="XWghQxtPNpE64DwW4WAM-64" value="&lt;span style=&quot;font-size: 10px;&quot;&gt;hora&lt;/span&gt;" style="ellipse;whiteSpace=wrap;html=1;" parent="1" vertex="1">
          <mxGeometry x="-30" y="420" width="70" height="40" as="geometry" />
        </mxCell>
        <mxCell id="XWghQxtPNpE64DwW4WAM-65" value="&lt;span style=&quot;font-size: 10px;&quot;&gt;motivo&lt;/span&gt;" style="ellipse;whiteSpace=wrap;html=1;" parent="1" vertex="1">
          <mxGeometry x="-240" y="420" width="70" height="40" as="geometry" />
        </mxCell>
        <mxCell id="XWghQxtPNpE64DwW4WAM-66" value="&lt;span style=&quot;font-size: 10px;&quot;&gt;fecha&lt;/span&gt;" style="ellipse;whiteSpace=wrap;html=1;" parent="1" vertex="1">
          <mxGeometry x="-30" y="300" width="70" height="40" as="geometry" />
        </mxCell>
        <mxCell id="XWghQxtPNpE64DwW4WAM-67" value="&lt;span style=&quot;font-size: 10px;&quot;&gt;id_cita&lt;/span&gt;" style="ellipse;whiteSpace=wrap;html=1;fillColor=#f8cecc;strokeColor=#b85450;" parent="1" vertex="1">
          <mxGeometry x="-260" y="300" width="70" height="40" as="geometry" />
        </mxCell>
        <mxCell id="XWghQxtPNpE64DwW4WAM-69" value="" style="endArrow=none;html=1;rounded=0;entryX=0;entryY=0.5;entryDx=0;entryDy=0;exitX=1;exitY=0.5;exitDx=0;exitDy=0;" parent="1" source="XWghQxtPNpE64DwW4WAM-4" target="XWghQxtPNpE64DwW4WAM-60" edge="1">
          <mxGeometry width="50" height="50" relative="1" as="geometry">
            <mxPoint x="-490" y="440" as="sourcePoint" />
            <mxPoint x="-440" y="390" as="targetPoint" />
          </mxGeometry>
        </mxCell>
        <mxCell id="XWghQxtPNpE64DwW4WAM-70" value="" style="endArrow=none;html=1;rounded=0;entryX=0;entryY=0.5;entryDx=0;entryDy=0;exitX=1;exitY=0.5;exitDx=0;exitDy=0;" parent="1" source="XWghQxtPNpE64DwW4WAM-60" target="XWghQxtPNpE64DwW4WAM-5" edge="1">
          <mxGeometry width="50" height="50" relative="1" as="geometry">
            <mxPoint x="-290" y="390" as="sourcePoint" />
            <mxPoint x="-320" y="340" as="targetPoint" />
          </mxGeometry>
        </mxCell>
        <mxCell id="XWghQxtPNpE64DwW4WAM-71" value="" style="endArrow=none;html=1;rounded=0;exitX=1;exitY=0;exitDx=0;exitDy=0;entryX=0.08;entryY=1.025;entryDx=0;entryDy=0;entryPerimeter=0;" parent="1" source="XWghQxtPNpE64DwW4WAM-65" target="XWghQxtPNpE64DwW4WAM-5" edge="1">
          <mxGeometry width="50" height="50" relative="1" as="geometry">
            <mxPoint x="-170" y="480" as="sourcePoint" />
            <mxPoint x="-120" y="430" as="targetPoint" />
          </mxGeometry>
        </mxCell>
        <mxCell id="XWghQxtPNpE64DwW4WAM-72" value="" style="endArrow=none;html=1;rounded=0;entryX=0.75;entryY=1;entryDx=0;entryDy=0;exitX=0;exitY=0;exitDx=0;exitDy=0;" parent="1" source="XWghQxtPNpE64DwW4WAM-64" target="XWghQxtPNpE64DwW4WAM-5" edge="1">
          <mxGeometry width="50" height="50" relative="1" as="geometry">
            <mxPoint x="-100" y="470" as="sourcePoint" />
            <mxPoint x="-50" y="420" as="targetPoint" />
          </mxGeometry>
        </mxCell>
        <mxCell id="XWghQxtPNpE64DwW4WAM-74" value="" style="endArrow=none;html=1;rounded=0;entryX=1;entryY=1;entryDx=0;entryDy=0;exitX=0;exitY=0;exitDx=0;exitDy=0;" parent="1" source="XWghQxtPNpE64DwW4WAM-5" target="XWghQxtPNpE64DwW4WAM-67" edge="1">
          <mxGeometry width="50" height="50" relative="1" as="geometry">
            <mxPoint x="-340" y="520" as="sourcePoint" />
            <mxPoint x="-290" y="470" as="targetPoint" />
          </mxGeometry>
        </mxCell>
        <mxCell id="XWghQxtPNpE64DwW4WAM-75" value="" style="endArrow=none;html=1;rounded=0;entryX=0.5;entryY=1;entryDx=0;entryDy=0;exitX=0.5;exitY=0;exitDx=0;exitDy=0;" parent="1" source="XWghQxtPNpE64DwW4WAM-5" target="XWghQxtPNpE64DwW4WAM-59" edge="1">
          <mxGeometry width="50" height="50" relative="1" as="geometry">
            <mxPoint x="-120" y="400" as="sourcePoint" />
            <mxPoint x="-100" y="334" as="targetPoint" />
          </mxGeometry>
        </mxCell>
        <mxCell id="XWghQxtPNpE64DwW4WAM-76" value="" style="endArrow=none;html=1;rounded=0;entryX=0;entryY=1;entryDx=0;entryDy=0;exitX=0.893;exitY=-0.035;exitDx=0;exitDy=0;exitPerimeter=0;" parent="1" source="XWghQxtPNpE64DwW4WAM-5" target="XWghQxtPNpE64DwW4WAM-66" edge="1">
          <mxGeometry width="50" height="50" relative="1" as="geometry">
            <mxPoint x="-30" y="400" as="sourcePoint" />
            <mxPoint x="20" y="350" as="targetPoint" />
          </mxGeometry>
        </mxCell>
        <mxCell id="XWghQxtPNpE64DwW4WAM-77" value="" style="endArrow=none;html=1;rounded=0;" parent="1" edge="1">
          <mxGeometry width="50" height="50" relative="1" as="geometry">
            <mxPoint x="-205" y="329" as="sourcePoint" />
            <mxPoint x="-245" y="329" as="targetPoint" />
          </mxGeometry>
        </mxCell>
        <mxCell id="XWghQxtPNpE64DwW4WAM-78" value="" style="endArrow=none;html=1;rounded=0;entryX=0.5;entryY=1;entryDx=0;entryDy=0;exitX=0.5;exitY=0;exitDx=0;exitDy=0;" parent="1" source="XWghQxtPNpE64DwW4WAM-59" target="XWghQxtPNpE64DwW4WAM-2" edge="1">
          <mxGeometry width="50" height="50" relative="1" as="geometry">
            <mxPoint x="-200" y="290" as="sourcePoint" />
            <mxPoint x="-150" y="240" as="targetPoint" />
          </mxGeometry>
        </mxCell>
        <mxCell id="XWghQxtPNpE64DwW4WAM-79" value="&lt;font size=&quot;1&quot;&gt;medicamentos&lt;/font&gt;" style="rounded=0;whiteSpace=wrap;html=1;fillColor=#dae8fc;strokeColor=#6c8ebf;" parent="1" vertex="1">
          <mxGeometry x="256" y="550" width="120" height="40" as="geometry" />
        </mxCell>
        <mxCell id="XWghQxtPNpE64DwW4WAM-80" value="&lt;font size=&quot;1&quot;&gt;insumos&lt;/font&gt;" style="rounded=0;whiteSpace=wrap;html=1;fillColor=#dae8fc;strokeColor=#6c8ebf;" parent="1" vertex="1">
          <mxGeometry x="-6" y="682" width="120" height="40" as="geometry" />
        </mxCell>
        <mxCell id="XWghQxtPNpE64DwW4WAM-84" value="&lt;span style=&quot;font-size: 10px;&quot;&gt;medicamento&lt;/span&gt;" style="ellipse;whiteSpace=wrap;html=1;" parent="1" vertex="1">
          <mxGeometry x="315" y="640" width="70" height="40" as="geometry" />
        </mxCell>
        <mxCell id="XWghQxtPNpE64DwW4WAM-85" value="&lt;span style=&quot;font-size: 10px;&quot;&gt;id_medicamento&lt;/span&gt;" style="ellipse;whiteSpace=wrap;html=1;fillColor=#f8cecc;strokeColor=#b85450;" parent="1" vertex="1">
          <mxGeometry x="230" y="640" width="80" height="40" as="geometry" />
        </mxCell>
        <mxCell id="XWghQxtPNpE64DwW4WAM-86" value="&lt;span style=&quot;font-size: 10px;&quot;&gt;insumo&lt;/span&gt;" style="ellipse;whiteSpace=wrap;html=1;" parent="1" vertex="1">
          <mxGeometry x="-145" y="700" width="70" height="40" as="geometry" />
        </mxCell>
        <mxCell id="XWghQxtPNpE64DwW4WAM-87" value="&lt;span style=&quot;font-size: 10px;&quot;&gt;id_insumo&lt;/span&gt;" style="ellipse;whiteSpace=wrap;html=1;fillColor=#f8cecc;strokeColor=#b85450;" parent="1" vertex="1">
          <mxGeometry x="-145" y="647" width="70" height="40" as="geometry" />
        </mxCell>
        <mxCell id="XWghQxtPNpE64DwW4WAM-88" value="" style="endArrow=none;html=1;rounded=0;entryX=0.5;entryY=0;entryDx=0;entryDy=0;exitX=0.5;exitY=1;exitDx=0;exitDy=0;" parent="1" source="XWghQxtPNpE64DwW4WAM-79" target="XWghQxtPNpE64DwW4WAM-85" edge="1">
          <mxGeometry width="50" height="50" relative="1" as="geometry">
            <mxPoint x="141" y="620" as="sourcePoint" />
            <mxPoint x="191" y="570" as="targetPoint" />
          </mxGeometry>
        </mxCell>
        <mxCell id="XWghQxtPNpE64DwW4WAM-89" value="" style="endArrow=none;html=1;rounded=0;entryX=0.5;entryY=0;entryDx=0;entryDy=0;exitX=0.5;exitY=1;exitDx=0;exitDy=0;" parent="1" source="XWghQxtPNpE64DwW4WAM-79" target="XWghQxtPNpE64DwW4WAM-84" edge="1">
          <mxGeometry width="50" height="50" relative="1" as="geometry">
            <mxPoint x="311" y="610" as="sourcePoint" />
            <mxPoint x="361" y="560" as="targetPoint" />
          </mxGeometry>
        </mxCell>
        <mxCell id="XWghQxtPNpE64DwW4WAM-90" value="" style="endArrow=none;html=1;rounded=0;entryX=1;entryY=0.5;entryDx=0;entryDy=0;exitX=0;exitY=0.5;exitDx=0;exitDy=0;" parent="1" source="XWghQxtPNpE64DwW4WAM-80" target="XWghQxtPNpE64DwW4WAM-87" edge="1">
          <mxGeometry width="50" height="50" relative="1" as="geometry">
            <mxPoint x="-190" y="700" as="sourcePoint" />
            <mxPoint x="-240" y="630" as="targetPoint" />
          </mxGeometry>
        </mxCell>
        <mxCell id="XWghQxtPNpE64DwW4WAM-91" value="" style="endArrow=none;html=1;rounded=0;entryX=1;entryY=0.5;entryDx=0;entryDy=0;exitX=0;exitY=0.5;exitDx=0;exitDy=0;" parent="1" source="XWghQxtPNpE64DwW4WAM-80" target="XWghQxtPNpE64DwW4WAM-86" edge="1">
          <mxGeometry width="50" height="50" relative="1" as="geometry">
            <mxPoint x="-10" y="710" as="sourcePoint" />
            <mxPoint x="-396.5" y="700" as="targetPoint" />
          </mxGeometry>
        </mxCell>
        <mxCell id="XWghQxtPNpE64DwW4WAM-93" value="&lt;span style=&quot;font-size: 10px;&quot;&gt;tratamientos&lt;/span&gt;" style="rounded=0;whiteSpace=wrap;html=1;fillColor=#dae8fc;strokeColor=#6c8ebf;" parent="1" vertex="1">
          <mxGeometry x="250" y="200" width="120" height="30" as="geometry" />
        </mxCell>
        <mxCell id="XWghQxtPNpE64DwW4WAM-94" value="&lt;span style=&quot;font-size: 10px;&quot;&gt;id_tratamiento&lt;/span&gt;" style="ellipse;whiteSpace=wrap;html=1;fillColor=#f8cecc;strokeColor=#b85450;" parent="1" vertex="1">
          <mxGeometry x="267" y="80" width="70" height="40" as="geometry" />
        </mxCell>
        <mxCell id="XWghQxtPNpE64DwW4WAM-95" value="diagnostico" style="ellipse;whiteSpace=wrap;html=1;" parent="1" vertex="1">
          <mxGeometry x="400" y="90" width="70" height="40" as="geometry" />
        </mxCell>
        <mxCell id="XWghQxtPNpE64DwW4WAM-96" value="&lt;span style=&quot;font-size: 10px;&quot;&gt;id_procedimento&lt;/span&gt;" style="ellipse;whiteSpace=wrap;html=1;fillColor=#f8cecc;strokeColor=#b85450;" parent="1" vertex="1">
          <mxGeometry x="-145" y="480" width="90" height="40" as="geometry" />
        </mxCell>
        <mxCell id="XWghQxtPNpE64DwW4WAM-97" value="&lt;span style=&quot;font-size: 10px;&quot;&gt;precedimiento&lt;/span&gt;" style="ellipse;whiteSpace=wrap;html=1;" parent="1" vertex="1">
          <mxGeometry x="-125" y="540" width="70" height="40" as="geometry" />
        </mxCell>
        <mxCell id="XWghQxtPNpE64DwW4WAM-101" value="&lt;span style=&quot;font-size: 10px;&quot;&gt;tratamientos de pacientes&lt;/span&gt;" style="rhombus;whiteSpace=wrap;html=1;" parent="1" vertex="1">
          <mxGeometry x="65" y="178.75" width="110" height="72.5" as="geometry" />
        </mxCell>
        <mxCell id="XWghQxtPNpE64DwW4WAM-102" value="" style="endArrow=none;html=1;rounded=0;exitX=1;exitY=0.5;exitDx=0;exitDy=0;entryX=0;entryY=0.5;entryDx=0;entryDy=0;" parent="1" source="XWghQxtPNpE64DwW4WAM-2" target="XWghQxtPNpE64DwW4WAM-101" edge="1">
          <mxGeometry width="50" height="50" relative="1" as="geometry">
            <mxPoint x="10" y="220" as="sourcePoint" />
            <mxPoint x="60" y="170" as="targetPoint" />
          </mxGeometry>
        </mxCell>
        <mxCell id="XWghQxtPNpE64DwW4WAM-103" value="" style="endArrow=none;html=1;rounded=0;exitX=1;exitY=0.5;exitDx=0;exitDy=0;entryX=0;entryY=0.5;entryDx=0;entryDy=0;" parent="1" source="XWghQxtPNpE64DwW4WAM-101" target="XWghQxtPNpE64DwW4WAM-93" edge="1">
          <mxGeometry width="50" height="50" relative="1" as="geometry">
            <mxPoint x="150" y="310" as="sourcePoint" />
            <mxPoint x="200" y="260" as="targetPoint" />
          </mxGeometry>
        </mxCell>
        <mxCell id="XWghQxtPNpE64DwW4WAM-104" value="" style="endArrow=none;html=1;rounded=0;entryX=0.5;entryY=1;entryDx=0;entryDy=0;exitX=0.43;exitY=-0.073;exitDx=0;exitDy=0;exitPerimeter=0;" parent="1" source="XWghQxtPNpE64DwW4WAM-93" target="XWghQxtPNpE64DwW4WAM-94" edge="1">
          <mxGeometry width="50" height="50" relative="1" as="geometry">
            <mxPoint x="270" y="180" as="sourcePoint" />
            <mxPoint x="320" y="130" as="targetPoint" />
          </mxGeometry>
        </mxCell>
        <mxCell id="XWghQxtPNpE64DwW4WAM-105" value="" style="endArrow=none;html=1;rounded=0;exitX=0.75;exitY=0;exitDx=0;exitDy=0;entryX=0.274;entryY=0.985;entryDx=0;entryDy=0;entryPerimeter=0;" parent="1" source="XWghQxtPNpE64DwW4WAM-93" target="XWghQxtPNpE64DwW4WAM-95" edge="1">
          <mxGeometry width="50" height="50" relative="1" as="geometry">
            <mxPoint x="460" y="200" as="sourcePoint" />
            <mxPoint x="510" y="150" as="targetPoint" />
          </mxGeometry>
        </mxCell>
        <mxCell id="XWghQxtPNpE64DwW4WAM-106" value="&lt;span style=&quot;font-size: 10px;&quot;&gt;medicamento&amp;nbsp;&lt;/span&gt;&lt;div&gt;&lt;span style=&quot;font-size: 10px;&quot;&gt;para receta&lt;/span&gt;&lt;/div&gt;" style="rhombus;whiteSpace=wrap;html=1;" parent="1" vertex="1">
          <mxGeometry x="255" y="435" width="110" height="60" as="geometry" />
        </mxCell>
        <mxCell id="XWghQxtPNpE64DwW4WAM-107" value="&lt;span style=&quot;font-size: 10px;&quot;&gt;recta para tratamiento&lt;/span&gt;" style="rhombus;whiteSpace=wrap;html=1;" parent="1" vertex="1">
          <mxGeometry x="270" y="265" width="80" height="60" as="geometry" />
        </mxCell>
        <mxCell id="XWghQxtPNpE64DwW4WAM-108" value="" style="endArrow=none;html=1;rounded=0;entryX=0.5;entryY=1;entryDx=0;entryDy=0;exitX=0.5;exitY=0;exitDx=0;exitDy=0;" parent="1" source="XWghQxtPNpE64DwW4WAM-107" target="XWghQxtPNpE64DwW4WAM-93" edge="1">
          <mxGeometry width="50" height="50" relative="1" as="geometry">
            <mxPoint x="236" y="325" as="sourcePoint" />
            <mxPoint x="286" y="275" as="targetPoint" />
          </mxGeometry>
        </mxCell>
        <mxCell id="XWghQxtPNpE64DwW4WAM-109" value="" style="endArrow=none;html=1;rounded=0;entryX=0.5;entryY=1;entryDx=0;entryDy=0;exitX=0.5;exitY=0;exitDx=0;exitDy=0;" parent="1" source="XWghQxtPNpE64DwW4WAM-6" target="XWghQxtPNpE64DwW4WAM-107" edge="1">
          <mxGeometry width="50" height="50" relative="1" as="geometry">
            <mxPoint x="190" y="390" as="sourcePoint" />
            <mxPoint x="240" y="340" as="targetPoint" />
          </mxGeometry>
        </mxCell>
        <mxCell id="XWghQxtPNpE64DwW4WAM-110" value="" style="endArrow=none;html=1;rounded=0;entryX=0.5;entryY=1;entryDx=0;entryDy=0;" parent="1" source="XWghQxtPNpE64DwW4WAM-106" target="XWghQxtPNpE64DwW4WAM-6" edge="1">
          <mxGeometry width="50" height="50" relative="1" as="geometry">
            <mxPoint x="180" y="464" as="sourcePoint" />
            <mxPoint x="230" y="414" as="targetPoint" />
          </mxGeometry>
        </mxCell>
        <mxCell id="XWghQxtPNpE64DwW4WAM-111" value="" style="endArrow=none;html=1;rounded=0;entryX=0.5;entryY=1;entryDx=0;entryDy=0;exitX=0.444;exitY=-0.095;exitDx=0;exitDy=0;exitPerimeter=0;" parent="1" source="XWghQxtPNpE64DwW4WAM-79" target="XWghQxtPNpE64DwW4WAM-106" edge="1">
          <mxGeometry width="50" height="50" relative="1" as="geometry">
            <mxPoint x="240" y="580" as="sourcePoint" />
            <mxPoint x="280" y="530" as="targetPoint" />
          </mxGeometry>
        </mxCell>
        <mxCell id="XWghQxtPNpE64DwW4WAM-112" value="&lt;span style=&quot;font-size: 10px;&quot;&gt;procedimientos&lt;/span&gt;" style="rounded=0;whiteSpace=wrap;html=1;fillColor=#dae8fc;strokeColor=#6c8ebf;" parent="1" vertex="1">
          <mxGeometry x="-5" y="500" width="118" height="30" as="geometry" />
        </mxCell>
        <mxCell id="XWghQxtPNpE64DwW4WAM-113" value="&lt;span style=&quot;font-size: 10px;&quot;&gt;procedimento&lt;/span&gt;&lt;div&gt;&lt;span style=&quot;font-size: 10px;&quot;&gt;para tratamiento&lt;/span&gt;&lt;/div&gt;" style="rhombus;whiteSpace=wrap;html=1;" parent="1" vertex="1">
          <mxGeometry x="30" y="345" width="130" height="80" as="geometry" />
        </mxCell>
        <mxCell id="XWghQxtPNpE64DwW4WAM-114" value="" style="endArrow=none;html=1;rounded=0;entryX=0;entryY=1;entryDx=0;entryDy=0;exitX=1;exitY=0;exitDx=0;exitDy=0;" parent="1" source="XWghQxtPNpE64DwW4WAM-113" target="XWghQxtPNpE64DwW4WAM-93" edge="1">
          <mxGeometry width="50" height="50" relative="1" as="geometry">
            <mxPoint x="160" y="350" as="sourcePoint" />
            <mxPoint x="150" y="310" as="targetPoint" />
          </mxGeometry>
        </mxCell>
        <mxCell id="XWghQxtPNpE64DwW4WAM-115" value="" style="endArrow=none;html=1;rounded=0;exitX=0.5;exitY=0;exitDx=0;exitDy=0;entryX=0.413;entryY=0.915;entryDx=0;entryDy=0;entryPerimeter=0;" parent="1" source="XWghQxtPNpE64DwW4WAM-112" target="XWghQxtPNpE64DwW4WAM-113" edge="1">
          <mxGeometry width="50" height="50" relative="1" as="geometry">
            <mxPoint x="70" y="500" as="sourcePoint" />
            <mxPoint x="136" y="400" as="targetPoint" />
          </mxGeometry>
        </mxCell>
        <mxCell id="XWghQxtPNpE64DwW4WAM-117" value="" style="endArrow=none;html=1;rounded=0;entryX=0;entryY=0.5;entryDx=0;entryDy=0;exitX=1;exitY=0.5;exitDx=0;exitDy=0;" parent="1" source="XWghQxtPNpE64DwW4WAM-96" target="XWghQxtPNpE64DwW4WAM-112" edge="1">
          <mxGeometry width="50" height="50" relative="1" as="geometry">
            <mxPoint x="-170" y="640" as="sourcePoint" />
            <mxPoint x="-120" y="590" as="targetPoint" />
          </mxGeometry>
        </mxCell>
        <mxCell id="XWghQxtPNpE64DwW4WAM-118" value="" style="endArrow=none;html=1;rounded=0;entryX=0;entryY=0.5;entryDx=0;entryDy=0;" parent="1" source="XWghQxtPNpE64DwW4WAM-97" target="XWghQxtPNpE64DwW4WAM-112" edge="1">
          <mxGeometry width="50" height="50" relative="1" as="geometry">
            <mxPoint x="-5" y="610" as="sourcePoint" />
            <mxPoint x="45" y="560" as="targetPoint" />
          </mxGeometry>
        </mxCell>
        <mxCell id="XWghQxtPNpE64DwW4WAM-119" value="" style="endArrow=none;html=1;rounded=0;" parent="1" edge="1">
          <mxGeometry width="50" height="50" relative="1" as="geometry">
            <mxPoint x="-130" y="508" as="sourcePoint" />
            <mxPoint x="-70" y="508" as="targetPoint" />
          </mxGeometry>
        </mxCell>
        <mxCell id="XWghQxtPNpE64DwW4WAM-124" value="&lt;span style=&quot;font-size: 10px;&quot;&gt;insumo de procedimiento&lt;/span&gt;" style="rhombus;whiteSpace=wrap;html=1;" parent="1" vertex="1">
          <mxGeometry x="4" y="571" width="100" height="80" as="geometry" />
        </mxCell>
        <mxCell id="XWghQxtPNpE64DwW4WAM-125" value="" style="endArrow=none;html=1;rounded=0;entryX=0.5;entryY=1;entryDx=0;entryDy=0;exitX=0.5;exitY=0;exitDx=0;exitDy=0;" parent="1" source="XWghQxtPNpE64DwW4WAM-80" target="XWghQxtPNpE64DwW4WAM-124" edge="1">
          <mxGeometry width="50" height="50" relative="1" as="geometry">
            <mxPoint x="-20" y="920" as="sourcePoint" />
            <mxPoint x="30" y="870" as="targetPoint" />
          </mxGeometry>
        </mxCell>
        <mxCell id="XWghQxtPNpE64DwW4WAM-127" value="" style="endArrow=none;html=1;rounded=0;entryX=0.5;entryY=1;entryDx=0;entryDy=0;exitX=0.5;exitY=0;exitDx=0;exitDy=0;" parent="1" source="XWghQxtPNpE64DwW4WAM-124" target="XWghQxtPNpE64DwW4WAM-112" edge="1">
          <mxGeometry width="50" height="50" relative="1" as="geometry">
            <mxPoint x="54" y="580" as="sourcePoint" />
            <mxPoint x="-10" y="610" as="targetPoint" />
          </mxGeometry>
        </mxCell>
        <mxCell id="XWghQxtPNpE64DwW4WAM-128" value="" style="endArrow=none;html=1;rounded=0;exitX=1;exitY=1;exitDx=0;exitDy=0;entryX=0;entryY=0.5;entryDx=0;entryDy=0;" parent="1" target="XWghQxtPNpE64DwW4WAM-132" edge="1">
          <mxGeometry width="50" height="50" relative="1" as="geometry">
            <mxPoint x="-490.75" y="380" as="sourcePoint" />
            <mxPoint x="-190" y="800" as="targetPoint" />
            <Array as="points">
              <mxPoint x="-320" y="800" />
            </Array>
          </mxGeometry>
        </mxCell>
        <mxCell id="XWghQxtPNpE64DwW4WAM-129" value="" style="endArrow=none;html=1;rounded=0;entryX=1;entryY=0.5;entryDx=0;entryDy=0;exitX=1;exitY=0.5;exitDx=0;exitDy=0;" parent="1" source="XWghQxtPNpE64DwW4WAM-132" target="XWghQxtPNpE64DwW4WAM-93" edge="1">
          <mxGeometry width="50" height="50" relative="1" as="geometry">
            <mxPoint x="470" y="840" as="sourcePoint" />
            <mxPoint x="430" y="440" as="targetPoint" />
            <Array as="points">
              <mxPoint x="400" y="800" />
              <mxPoint x="400" y="730" />
              <mxPoint x="400" y="650" />
              <mxPoint x="400" y="215" />
            </Array>
          </mxGeometry>
        </mxCell>
        <mxCell id="XWghQxtPNpE64DwW4WAM-132" value="&lt;span style=&quot;font-size: 10px;&quot;&gt;medico por tratamiento&lt;/span&gt;" style="rhombus;whiteSpace=wrap;html=1;" parent="1" vertex="1">
          <mxGeometry x="-20" y="770" width="100" height="60" as="geometry" />
        </mxCell>
        <mxCell id="XWghQxtPNpE64DwW4WAM-133" value="1" style="text;html=1;align=center;verticalAlign=middle;resizable=0;points=[];autosize=1;strokeColor=none;fillColor=none;" parent="1" vertex="1">
          <mxGeometry x="-560" y="150" width="30" height="30" as="geometry" />
        </mxCell>
        <mxCell id="XWghQxtPNpE64DwW4WAM-134" value="N" style="text;html=1;align=center;verticalAlign=middle;resizable=0;points=[];autosize=1;strokeColor=none;fillColor=none;" parent="1" vertex="1">
          <mxGeometry x="-560" y="310" width="30" height="30" as="geometry" />
        </mxCell>
        <mxCell id="XWghQxtPNpE64DwW4WAM-135" value="1" style="text;html=1;align=center;verticalAlign=middle;resizable=0;points=[];autosize=1;strokeColor=none;fillColor=none;" parent="1" vertex="1">
          <mxGeometry x="-560" y="505" width="30" height="30" as="geometry" />
        </mxCell>
        <mxCell id="XWghQxtPNpE64DwW4WAM-136" value="N" style="text;html=1;align=center;verticalAlign=middle;resizable=0;points=[];autosize=1;strokeColor=none;fillColor=none;" parent="1" vertex="1">
          <mxGeometry x="-560" y="385" width="30" height="30" as="geometry" />
        </mxCell>
        <mxCell id="XWghQxtPNpE64DwW4WAM-137" value="1" style="text;html=1;align=center;verticalAlign=middle;resizable=0;points=[];autosize=1;strokeColor=none;fillColor=none;" parent="1" vertex="1">
          <mxGeometry x="-105" y="230" width="30" height="30" as="geometry" />
        </mxCell>
        <mxCell id="XWghQxtPNpE64DwW4WAM-138" value="N" style="text;html=1;align=center;verticalAlign=middle;resizable=0;points=[];autosize=1;strokeColor=none;fillColor=none;" parent="1" vertex="1">
          <mxGeometry x="-105" y="340" width="30" height="30" as="geometry" />
        </mxCell>
        <mxCell id="XWghQxtPNpE64DwW4WAM-139" value="N" style="text;html=1;align=center;verticalAlign=middle;resizable=0;points=[];autosize=1;strokeColor=none;fillColor=none;" parent="1" vertex="1">
          <mxGeometry x="210" y="188" width="30" height="30" as="geometry" />
        </mxCell>
        <mxCell id="XWghQxtPNpE64DwW4WAM-140" value="1" style="text;html=1;align=center;verticalAlign=middle;resizable=0;points=[];autosize=1;strokeColor=none;fillColor=none;" parent="1" vertex="1">
          <mxGeometry x="-20" y="188" width="30" height="30" as="geometry" />
        </mxCell>
        <mxCell id="XWghQxtPNpE64DwW4WAM-141" value="1" style="text;html=1;align=center;verticalAlign=middle;resizable=0;points=[];autosize=1;strokeColor=none;fillColor=none;" parent="1" vertex="1">
          <mxGeometry x="305" y="228" width="30" height="30" as="geometry" />
        </mxCell>
        <mxCell id="XWghQxtPNpE64DwW4WAM-142" value="N" style="text;html=1;align=center;verticalAlign=middle;resizable=0;points=[];autosize=1;strokeColor=none;fillColor=none;" parent="1" vertex="1">
          <mxGeometry x="310" y="329" width="30" height="30" as="geometry" />
        </mxCell>
        <mxCell id="XWghQxtPNpE64DwW4WAM-143" value="&lt;span style=&quot;font-size: 10px;&quot;&gt;id_receta&lt;/span&gt;" style="ellipse;whiteSpace=wrap;html=1;fillColor=#f8cecc;strokeColor=#b85450;" parent="1" vertex="1">
          <mxGeometry x="180" y="361" width="50" height="36" as="geometry" />
        </mxCell>
        <mxCell id="XWghQxtPNpE64DwW4WAM-144" value="" style="endArrow=none;html=1;rounded=0;entryX=0;entryY=0.5;entryDx=0;entryDy=0;exitX=1;exitY=0.5;exitDx=0;exitDy=0;" parent="1" source="XWghQxtPNpE64DwW4WAM-143" target="XWghQxtPNpE64DwW4WAM-6" edge="1">
          <mxGeometry width="50" height="50" relative="1" as="geometry">
            <mxPoint x="215" y="506" as="sourcePoint" />
            <mxPoint x="175" y="470" as="targetPoint" />
          </mxGeometry>
        </mxCell>
        <mxCell id="XWghQxtPNpE64DwW4WAM-145" value="" style="endArrow=none;html=1;rounded=0;" parent="1" edge="1">
          <mxGeometry width="50" height="50" relative="1" as="geometry">
            <mxPoint x="220" y="390" as="sourcePoint" />
            <mxPoint x="190" y="390" as="targetPoint" />
          </mxGeometry>
        </mxCell>
        <mxCell id="XWghQxtPNpE64DwW4WAM-146" value="M" style="text;html=1;align=center;verticalAlign=middle;resizable=0;points=[];autosize=1;strokeColor=none;fillColor=none;" parent="1" vertex="1">
          <mxGeometry x="307" y="510" width="30" height="30" as="geometry" />
        </mxCell>
        <mxCell id="XWghQxtPNpE64DwW4WAM-147" value="N" style="text;html=1;align=center;verticalAlign=middle;resizable=0;points=[];autosize=1;strokeColor=none;fillColor=none;" parent="1" vertex="1">
          <mxGeometry x="307" y="405" width="30" height="30" as="geometry" />
        </mxCell>
        <mxCell id="XWghQxtPNpE64DwW4WAM-148" value="N" style="text;html=1;align=center;verticalAlign=middle;resizable=0;points=[];autosize=1;strokeColor=none;fillColor=none;" parent="1" vertex="1">
          <mxGeometry x="47" y="537" width="30" height="30" as="geometry" />
        </mxCell>
        <mxCell id="XWghQxtPNpE64DwW4WAM-150" value="N" style="text;html=1;align=center;verticalAlign=middle;resizable=0;points=[];autosize=1;strokeColor=none;fillColor=none;" parent="1" vertex="1">
          <mxGeometry x="47" y="652" width="30" height="30" as="geometry" />
        </mxCell>
        <mxCell id="XWghQxtPNpE64DwW4WAM-152" value="1" style="text;html=1;align=center;verticalAlign=middle;resizable=0;points=[];autosize=1;strokeColor=none;fillColor=none;" parent="1" vertex="1">
          <mxGeometry x="220" y="260" width="30" height="30" as="geometry" />
        </mxCell>
        <mxCell id="XWghQxtPNpE64DwW4WAM-153" value="N" style="text;html=1;align=center;verticalAlign=middle;resizable=0;points=[];autosize=1;strokeColor=none;fillColor=none;" parent="1" vertex="1">
          <mxGeometry x="74" y="454" width="30" height="30" as="geometry" />
        </mxCell>
        <mxCell id="XWghQxtPNpE64DwW4WAM-154" value="1" style="text;html=1;align=center;verticalAlign=middle;resizable=0;points=[];autosize=1;strokeColor=none;fillColor=none;" parent="1" vertex="1">
          <mxGeometry x="-460" y="350" width="30" height="30" as="geometry" />
        </mxCell>
        <mxCell id="XWghQxtPNpE64DwW4WAM-155" value="M" style="text;html=1;align=center;verticalAlign=middle;resizable=0;points=[];autosize=1;strokeColor=none;fillColor=none;" parent="1" vertex="1">
          <mxGeometry x="-240" y="359" width="30" height="30" as="geometry" />
        </mxCell>
        <mxCell id="XWghQxtPNpE64DwW4WAM-157" value="N" style="text;html=1;align=center;verticalAlign=middle;resizable=0;points=[];autosize=1;strokeColor=none;fillColor=none;" parent="1" vertex="1">
          <mxGeometry x="-400" y="550" width="30" height="30" as="geometry" />
        </mxCell>
        <mxCell id="XWghQxtPNpE64DwW4WAM-158" value="" style="endArrow=none;html=1;rounded=0;" parent="1" edge="1">
          <mxGeometry width="50" height="50" relative="1" as="geometry">
            <mxPoint x="-130" y="679.13" as="sourcePoint" />
            <mxPoint x="-90" y="679.13" as="targetPoint" />
          </mxGeometry>
        </mxCell>
        <mxCell id="XWghQxtPNpE64DwW4WAM-159" value="" style="endArrow=none;html=1;rounded=0;" parent="1" edge="1">
          <mxGeometry width="50" height="50" relative="1" as="geometry">
            <mxPoint x="246" y="667.57" as="sourcePoint" />
            <mxPoint x="296" y="667.57" as="targetPoint" />
          </mxGeometry>
        </mxCell>
        <mxCell id="XWghQxtPNpE64DwW4WAM-160" value="" style="endArrow=none;html=1;rounded=0;" parent="1" edge="1">
          <mxGeometry width="50" height="50" relative="1" as="geometry">
            <mxPoint x="277" y="109.13" as="sourcePoint" />
            <mxPoint x="327" y="109.13" as="targetPoint" />
          </mxGeometry>
        </mxCell>
        <mxCell id="XWghQxtPNpE64DwW4WAM-161" value="" style="endArrow=none;html=1;rounded=0;" parent="1" edge="1">
          <mxGeometry width="50" height="50" relative="1" as="geometry">
            <mxPoint x="-725" y="378.57" as="sourcePoint" />
            <mxPoint x="-685" y="378.57" as="targetPoint" />
          </mxGeometry>
        </mxCell>
        <mxCell id="XWghQxtPNpE64DwW4WAM-165" value="1" style="text;html=1;align=center;verticalAlign=middle;resizable=0;points=[];autosize=1;strokeColor=none;fillColor=none;" parent="1" vertex="1">
          <mxGeometry x="400" y="242.5" width="30" height="30" as="geometry" />
        </mxCell>
      </root>
    </mxGraphModel>
  </diagram>
</mxfile>
